<svg width="20" height="13" viewBox="0 0 20 13" fill="none" xmlns="http://www.w3.org/2000/svg">
<path d="M19.2588 5.8C19.0858 5.563 14.9588 0 9.69082 0C4.42282 0 0.299824 5.565 0.122824 5.8C0.0430059 5.9095 0 6.0415 0 6.177C0 6.3125 0.0430059 6.4445 0.122824 6.554C0.295824 6.791 4.42282 12.354 9.69082 12.354C14.9588 12.354 19.0908 6.791 19.2588 6.554C19.3388 6.44457 19.3819 6.31254 19.3819 6.177C19.3819 6.04146 19.3388 5.90944 19.2588 5.8ZM9.69082 11.076C5.80982 11.076 2.44782 7.384 1.45282 6.176C2.44682 4.968 5.80182 1.276 9.69082 1.276C13.5798 1.276 16.9338 4.968 17.9288 6.176C16.9358 7.385 13.5808 11.076 9.69082 11.076Z" fill="white"/>
<path d="M9.69083 3.315C9.12497 3.315 8.57184 3.48279 8.10135 3.79716C7.63086 4.11154 7.26415 4.55837 7.04761 5.08115C6.83107 5.60393 6.77442 6.17917 6.88481 6.73415C6.9952 7.28913 7.26768 7.79892 7.6678 8.19904C8.06792 8.59915 8.5777 8.87163 9.13268 8.98203C9.68765 9.09242 10.2629 9.03576 10.7857 8.81921C11.3085 8.60267 11.7553 8.23598 12.0697 7.76549C12.384 7.295 12.5518 6.74185 12.5518 6.17599C12.5508 5.41754 12.249 4.69044 11.7127 4.15413C11.1764 3.61782 10.4493 3.31606 9.69083 3.315Z" fill="white"/>
</svg>
